<svg xmlns="http://www.w3.org/2000/svg" viewBox="0 0 100 100">
  <rect x="0" y="5" width="75" height="90" rx="4" fill="#000"/>
  <rect x="1" y="6" width="73" height="88" rx="3" fill="#ffffff"/>
  
  <rect x="1" y="6" width="73" height="12" rx="3" fill="#f1f5f9"/>
  <circle cx="8" cy="12" r="2" fill="#ea4335"/>
  <circle cx="15" cy="12" r="2" fill="#fbbc05"/>
  <circle cx="22" cy="12" r="2" fill="#34a853"/>

  <rect x="10" y="30" width="55" height="3" rx="1.5" fill="#e2e8f0"/>
  <rect x="10" y="40" width="45" height="3" rx="1.5" fill="#e2e8f0"/>
  <rect x="10" y="50" width="50" height="3" rx="1.5" fill="#e2e8f0"/>
  <rect x="10" y="60" width="30" height="3" rx="1.5" fill="#e2e8f0"/>

  <rect x="80" y="5" width="20" height="90" rx="10" fill="#000"/>
  <rect x="81" y="6" width="18" height="88" rx="9" fill="#1e293b"/>
  
  <rect x="80" y="20" width="20" height="35" rx="10" fill="#000"/>
  <rect x="81" y="21" width="18" height="33" rx="9" fill="#0ea5e9"/>
  
  <g stroke="#000" stroke-width="2.5" stroke-linecap="round">
    <path d="M 85 33 L 95 33"/>
    <path d="M 85 38 L 95 38"/>
    <path d="M 85 43 L 95 43"/>
  </g>
  <g stroke="#fff" stroke-width="1" stroke-linecap="round">
    <path d="M 85 33 L 95 33"/>
    <path d="M 85 38 L 95 38"/>
    <path d="M 85 43 L 95 43"/>
  </g>
</svg>
