<svg version="1.2" xmlns="http://www.w3.org/2000/svg" viewBox="0 0 743 543" width="743" height="543"><style>.a{fill:#fff}.b{fill:#3f3d56}.c{fill:#ff6584}.d{fill:#d0cde1}.e{fill:#2f2e41}.f{fill:#ffb8b8}.g{fill:#ccc}.h{fill:#e6e6e6}.i{fill:#999}</style><path fill-rule="evenodd" class="a" d="m698.7 332v141.4h-141.4v-141.4z"/><path fill-rule="evenodd" class="b" d="m605.6 512.8v2h-420v-2z"/><path class="b" d="m513 515.2h230v-225.1h-230zm228.6-1.6h-227.3v-222h227.3z"/><path class="b" d="m137 388c62 0 112.4-50.5 112.4-112.4 0-61.9-50.5-112.4-112.4-112.4-61.9 0-112.4 50.5-112.4 112.4 0 61.9 50.4 112.4 112.4 112.4zm0-223.2c61.1 0 110.8 49.7 110.8 110.8 0 61.1-49.7 110.8-110.8 110.8-61.1 0-110.8-49.7-110.8-110.8 0-61.1 49.7-110.8 110.8-110.8z"/><path fill-rule="evenodd" class="a" d="m137 221.5c29.9 0 54.1 24.2 54.1 54.1 0 29.9-24.2 54.1-54.1 54.1-29.9 0-54.1-24.2-54.1-54.1 0-29.9 24.2-54.1 54.1-54.1z"/><path fill-rule="evenodd" class="c" d="m250.4 88.8l-31.6-18.3-18.3 31.6 31.6 18.3z"/><path fill-rule="evenodd" class="b" d="m731.5 129.7l-31.6-18.3-18.3 31.6 31.6 18.3z"/><path fill-rule="evenodd" class="d" d="m288.5 433.7l-31.6-18.2-18.3 31.6 31.6 18.3z"/><path fill-rule="evenodd" d="m643.8 386.8v31.7h-31.7v-31.7z"/><path fill-rule="evenodd" d="m137 262.3c7.4 0 13.3 5.9 13.3 13.3 0 7.4-5.9 13.3-13.3 13.3-7.4 0-13.3-5.9-13.3-13.3 0-7.4 5.9-13.3 13.3-13.3z"/><path fill-rule="evenodd" class="e" d="m346.7 111.6l61.4 1.6 8.3-74.9h-69.7z"/><path class="e" d="m411.7 208.6l22.4 159c0 0 19.3 56.5 20.9 84l6 39.7-26.8 6.1-28.5-111.6-38.9-100.7 4.5 116.1 9 94.7-26.8 4.6-16.5-120.6-17.9-88.7c0 0-13.5-76.4 7.4-84z"/><path class="e" d="m435.9 481.6l3 37.2c0 0-32 19-21.8 22.6 10.3 3.6 24.3-1.1 27.2-1.9 3-0.9 8.7-2.2 13.1-3.4 4.1-1 7.1-4.6 7.4-8.8 0-0.1 0-0.1 0-0.2 0.3-4.6-9.9-44.3-9.9-44.3z"/><path class="e" d="m358.2 482.6l-2.4 35.5c0 0-36.4 13.8-27 19.5 9.4 5.7 24.1 3.7 27 3.5 5.5-0.5 19.2-0.9 19.2-0.9 0 0 2.5 2.2 3.6-2.1 1.2-4.5-1.5-44.1-1.5-44.1z"/><path fill-rule="evenodd" class="f" d="m380.3 19.6c15.6 0 28.3 13.6 28.3 30.4 0 16.8-12.7 30.4-28.3 30.4-15.6 0-28.3-13.6-28.3-30.4 0-16.8 12.7-30.4 28.3-30.4z"/><path fill-rule="evenodd" class="f" d="m396.8 68.1l6 33.6-25.5 12.2-5.8-42.7z"/><path class="d" d="m380.3 104.7l3-12.2 17.9-9.2 6 7.6 19.4 6.1-22.3 122.4c0 0-76.1 4.6-77.7-7.6-1.6-12.1 14.9-45.9 14.9-45.9 0 0-4.5-16.7-3-26l6-36.7 23.9-7.6 5.5-6.8 5 8.2z"/><path class="e" d="m413.4 38.3c-21.3-6.6-42.2-7.9-62.6 0v-13.4c0-4.8 5-8.7 11.1-8.7h42.6c4.9 0 8.9 3.1 8.9 6.9z"/><path fill-rule="evenodd" d="m383.2 275.8l-60-35.5-34.7 61.4 60.1 35.5z"/><path class="f" d="m399.8 227l-31.3 22.9c0 0-13.5 35.1-23.9 29-10.4-6.2 12-36.7 12-36.7l25.3-26z"/><path class="f" d="m301.6 197.7l-3.3 19.4c0 0 8 40.4 17.7 32.3 9.7-8.1-3.3-33.9-3.3-33.9l1.6-16.2z"/><path class="d" d="m422.1 100.2l4.5-3.1c0 0 9 1.5 12 13.7 3 12.2 0 67.3-7.4 77.9-7.4 10.7-28.3 42.8-28.3 42.8l-28.3-13.7 29.9-35.1 7.4-44.3z"/><path class="d" d="m356.4 106.3l-12-3.1c0 0-7.4 3.1-10.4 13.7-3 10.6-19.3 64.2-17.9 68.8 1.4 4.6-13.5 35.1-13.5 35.1l20.9 1.5 12-32 12-32z"/><path class="e" d="m429.6 75.3c-6.1-3.7-8.8-12-9-19.6-0.2-7.7 1.5-15.2 1.6-22.8 0.1-1.5-0.1-3.2-0.4-4.6-0.6-1.9-1.3-3.7-2.2-5.3-7.8-13.4-21.4-22.8-35.5-23-2.1 0-4.1 0.4-6.1 1.3-1.5 0.7-2 0.6-2.1 2.6-3.4-1.3-7-1.1-10.4 0.4-3.3 1.5-6.3 3.6-9.1 6-1.6 1.4-3.2 2.8-4.6 4.5-7.5 8.7-9.3 22.2-7.1 34.1 0.7 3.9-2.6 7.6-5.5 10-2.8 2.3-6.1 4.6-7.4 8.1-1.4 3.6-0.7 7.6-0.9 11.2-0.7 7.4-4.9 13.6-10.9 16.3 1.3 1.6 3.2 2.4 5.1 2 2-0.5 3.8-1.5 5.3-2.8 5.9-4.8 10.1-11.8 11.8-19.7 0.8 4.2 0.6 8.5 0.5 12.9 0.1 4.8-0.7 9.6-2.2 14-1.6 4.5-4.6 8.1-8.5 10.5 3.7 2 7.8 0.6 10.8-2.4 3.1-3 5-7.4 6.3-11.7 2.1-7.2 2.9-14.6 2.4-22.1 3.5 6.4 4.7 14.1 3.6 21.6-1.3 7.6-4.7 14.4-10.1 19.4 9.2-0.1 18.2-2.6 26.3-7.5 2.1-1.1 3.9-2.6 5.4-4.6 2.5-4.1 2-9.5 1.3-14.5-0.7-3.9 3.7-9.5 1.3-12.3-0.7-0.8-1.7-1.3-2.7-1.4-7.5-0.8-14.6-5-18.6-12.2-2.8-5-4.7-10.7-4.7-16.3 0-16.4 11.8-29.5 26.4-29.4 14.5 0 26.4 13.3 26.3 29.5 0 3-0.5 5.9-1.2 8.7-0.9 3.3-1.5 6.6-2 10-0.5 3.9-1.2 7.8-2.1 11.6-1.9 7.4-5 14.8-10.9 18.6 2 1.2 4.3 1.3 6.5 1.5 7.4 0.9 15.1 0.7 22-2.9 6.4-3.5 11.6-11.4 11.3-19.7z"/><path fill-rule="evenodd" class="f" d="m406.8 49.8c1.7 0 3.1 2.3 3.1 5.1 0 2.8-1.4 5.1-3.1 5.1-1.7 0-3.1-2.3-3.1-5.1 0-2.8 1.4-5.1 3.1-5.1z"/><path fill-rule="evenodd" class="g" d="m527.9 168.1c8.2 0 14.8 6.6 14.8 14.8 0 8.2-6.6 14.8-14.8 14.8-8.2 0-14.8-6.6-14.8-14.8 0-8.2 6.6-14.8 14.8-14.8z"/><path fill-rule="evenodd" class="h" d="m633.2 231.5c6.5 0 11.8 5.3 11.8 11.8 0 6.5-5.3 11.8-11.8 11.8-6.5 0-11.8-5.3-11.8-11.8 0-6.5 5.3-11.8 11.8-11.8z"/><path fill-rule="evenodd" class="i" d="m605.6 140c6.5 0 11.8 5.3 11.8 11.8 0 6.5-5.3 11.8-11.8 11.8-6.5 0-11.8-5.3-11.8-11.8 0-6.5 5.3-11.8 11.8-11.8z"/><path fill-rule="evenodd" class="i" d="m567.7 54.9c5.8 0 10.4 4.6 10.4 10.4 0 5.8-4.6 10.4-10.4 10.4-5.8 0-10.4-4.6-10.4-10.4 0-5.8 4.6-10.4 10.4-10.4z"/></svg>